<mxfile host="app.diagrams.net" modified="2023-02-09T13:49:37.977Z" agent="5.0 (Windows NT 10.0; Win64; x64) AppleWebKit/537.36 (KHTML, like Gecko) Chrome/109.0.0.0 Safari/537.36" etag="fCikydwuCuhOW6mLXlt9" version="20.8.18" type="github">
  <diagram name="Page-1" id="1o8bksZp9QuYInwhWNQq">
    <mxGraphModel dx="880" dy="484" grid="1" gridSize="10" guides="1" tooltips="1" connect="1" arrows="1" fold="1" page="1" pageScale="1" pageWidth="1169" pageHeight="827" math="0" shadow="0">
      <root>
        <mxCell id="0" />
        <mxCell id="1" parent="0" />
        <mxCell id="Vsucb_MU8TqjF9mryZCo-15" value="" style="edgeStyle=orthogonalEdgeStyle;rounded=0;orthogonalLoop=1;jettySize=auto;html=1;endArrow=none;endFill=0;" edge="1" parent="1" source="Vsucb_MU8TqjF9mryZCo-3" target="Vsucb_MU8TqjF9mryZCo-13">
          <mxGeometry relative="1" as="geometry" />
        </mxCell>
        <mxCell id="Vsucb_MU8TqjF9mryZCo-3" value="Customer" style="whiteSpace=wrap;html=1;align=center;" vertex="1" parent="1">
          <mxGeometry x="90" y="120" width="100" height="40" as="geometry" />
        </mxCell>
        <mxCell id="Vsucb_MU8TqjF9mryZCo-22" value="" style="edgeStyle=orthogonalEdgeStyle;rounded=0;orthogonalLoop=1;jettySize=auto;html=1;endArrow=none;endFill=0;" edge="1" parent="1" source="Vsucb_MU8TqjF9mryZCo-4" target="Vsucb_MU8TqjF9mryZCo-14">
          <mxGeometry relative="1" as="geometry" />
        </mxCell>
        <mxCell id="Vsucb_MU8TqjF9mryZCo-25" value="" style="edgeStyle=orthogonalEdgeStyle;rounded=0;orthogonalLoop=1;jettySize=auto;html=1;endArrow=none;endFill=0;" edge="1" parent="1" source="Vsucb_MU8TqjF9mryZCo-4" target="Vsucb_MU8TqjF9mryZCo-11">
          <mxGeometry relative="1" as="geometry" />
        </mxCell>
        <mxCell id="Vsucb_MU8TqjF9mryZCo-4" value="Delivery" style="whiteSpace=wrap;html=1;align=center;" vertex="1" parent="1">
          <mxGeometry x="400" y="310" width="100" height="40" as="geometry" />
        </mxCell>
        <mxCell id="Vsucb_MU8TqjF9mryZCo-24" value="" style="edgeStyle=orthogonalEdgeStyle;rounded=0;orthogonalLoop=1;jettySize=auto;html=1;endArrow=none;endFill=0;" edge="1" parent="1" source="Vsucb_MU8TqjF9mryZCo-5" target="Vsucb_MU8TqjF9mryZCo-11">
          <mxGeometry relative="1" as="geometry" />
        </mxCell>
        <mxCell id="Vsucb_MU8TqjF9mryZCo-5" value="Location" style="whiteSpace=wrap;html=1;align=center;" vertex="1" parent="1">
          <mxGeometry x="400" y="490" width="100" height="40" as="geometry" />
        </mxCell>
        <mxCell id="Vsucb_MU8TqjF9mryZCo-17" value="" style="edgeStyle=orthogonalEdgeStyle;rounded=0;orthogonalLoop=1;jettySize=auto;html=1;endArrow=none;endFill=0;" edge="1" parent="1" source="Vsucb_MU8TqjF9mryZCo-6" target="Vsucb_MU8TqjF9mryZCo-12">
          <mxGeometry relative="1" as="geometry" />
        </mxCell>
        <mxCell id="Vsucb_MU8TqjF9mryZCo-19" value="" style="edgeStyle=orthogonalEdgeStyle;rounded=0;orthogonalLoop=1;jettySize=auto;html=1;endArrow=none;endFill=0;" edge="1" parent="1" source="Vsucb_MU8TqjF9mryZCo-6" target="Vsucb_MU8TqjF9mryZCo-14">
          <mxGeometry relative="1" as="geometry" />
        </mxCell>
        <mxCell id="Vsucb_MU8TqjF9mryZCo-6" value="Orders" style="whiteSpace=wrap;html=1;align=center;" vertex="1" parent="1">
          <mxGeometry x="400" y="120" width="100" height="40" as="geometry" />
        </mxCell>
        <mxCell id="Vsucb_MU8TqjF9mryZCo-7" value="Product" style="whiteSpace=wrap;html=1;align=center;" vertex="1" parent="1">
          <mxGeometry x="710" y="120" width="100" height="40" as="geometry" />
        </mxCell>
        <mxCell id="Vsucb_MU8TqjF9mryZCo-11" value="destination" style="shape=rhombus;perimeter=rhombusPerimeter;whiteSpace=wrap;html=1;align=center;" vertex="1" parent="1">
          <mxGeometry x="390" y="384" width="120" height="60" as="geometry" />
        </mxCell>
        <mxCell id="Vsucb_MU8TqjF9mryZCo-18" value="" style="edgeStyle=orthogonalEdgeStyle;rounded=0;orthogonalLoop=1;jettySize=auto;html=1;endArrow=none;endFill=0;" edge="1" parent="1" source="Vsucb_MU8TqjF9mryZCo-12" target="Vsucb_MU8TqjF9mryZCo-7">
          <mxGeometry relative="1" as="geometry" />
        </mxCell>
        <mxCell id="Vsucb_MU8TqjF9mryZCo-12" value="contain" style="shape=rhombus;perimeter=rhombusPerimeter;whiteSpace=wrap;html=1;align=center;" vertex="1" parent="1">
          <mxGeometry x="540" y="110" width="120" height="60" as="geometry" />
        </mxCell>
        <mxCell id="Vsucb_MU8TqjF9mryZCo-16" value="" style="edgeStyle=orthogonalEdgeStyle;rounded=0;orthogonalLoop=1;jettySize=auto;html=1;endArrow=none;endFill=0;" edge="1" parent="1" source="Vsucb_MU8TqjF9mryZCo-13" target="Vsucb_MU8TqjF9mryZCo-6">
          <mxGeometry relative="1" as="geometry" />
        </mxCell>
        <mxCell id="Vsucb_MU8TqjF9mryZCo-13" value="place" style="shape=rhombus;perimeter=rhombusPerimeter;whiteSpace=wrap;html=1;align=center;" vertex="1" parent="1">
          <mxGeometry x="230" y="110" width="120" height="60" as="geometry" />
        </mxCell>
        <mxCell id="Vsucb_MU8TqjF9mryZCo-14" value="ship" style="shape=rhombus;perimeter=rhombusPerimeter;whiteSpace=wrap;html=1;align=center;" vertex="1" parent="1">
          <mxGeometry x="390" y="210" width="120" height="60" as="geometry" />
        </mxCell>
      </root>
    </mxGraphModel>
  </diagram>
</mxfile>
